<svg xmlns="http://www.w3.org/2000/svg" viewBox="0 0 32 32" fill="none">
  <rect width="32" height="32" rx="8" fill="url(#gradient)"/>
  <defs>
    <linearGradient id="gradient" x1="0%" y1="0%" x2="100%" y2="100%">
      <stop offset="0%" style="stop-color:#10b981"/>
      <stop offset="100%" style="stop-color:#0d9488"/>
    </linearGradient>
  </defs>
  <path d="M23 8c0-1.1-.9-2-2-2s-2 .9-2 2-.9 2-2 2-2-.9-2-2-.9-2-2-2-2 .9-2 2v12c0 1.1.9 2 2 2h6c1.1 0 2-.9 2-2V8z" fill="white" opacity="0.9"/>
  <circle cx="8" cy="12" r="2" fill="white" opacity="0.9"/>
  <circle cx="8" cy="20" r="2" fill="white" opacity="0.9"/>
  <path d="M10 12h3M10 20h3" stroke="white" stroke-width="1.5" stroke-linecap="round" opacity="0.9"/>
</svg>